<?xml version="1.0" standalone="no"?>
<!DOCTYPE svg PUBLIC "-//W3C//DTD SVG 20010904//EN"
 "http://www.w3.org/TR/2001/REC-SVG-20010904/DTD/svg10.dtd">
<svg version="1.0" xmlns="http://www.w3.org/2000/svg"
 width="512.000000pt" height="512.000000pt" viewBox="0 0 512.000000 512.000000"
 preserveAspectRatio="xMidYMid meet">

<g transform="translate(0.000000,512.000000) scale(0.100000,-0.100000)"
fill="#000000" stroke="none">
<path d="M892 5109 c-103 -13 -211 -47 -317 -98 -271 -132 -459 -364 -542
-666 l-28 -100 0 -1685 0 -1685 28 -100 c63 -232 194 -428 377 -567 88 -67
244 -142 365 -176 l100 -27 1685 0 1685 0 100 27 c195 54 359 151 491 291 121
127 202 274 251 452 l28 100 0 1685 0 1685 -27 100 c-31 112 -100 262 -156
339 -54 76 -158 181 -233 236 -88 66 -233 134 -354 167 l-100 28 -1645 1
c-905 1 -1673 -2 -1708 -7z m1180 -1586 l488 -488 488 488 c427 426 491 487
518 487 33 0 69 -21 84 -50 9 -17 402 -2411 397 -2417 -6 -6 -1300 -729 -1351
-755 -78 -39 -153 -47 -222 -22 -61 23 -1404 772 -1404 784 0 24 381 2360 390
2392 12 42 47 67 95 68 26 0 89 -60 517 -487z"/>
</g>
</svg>
