<svg id="eKmoxgwk1V21" xmlns="http://www.w3.org/2000/svg" xmlns:xlink="http://www.w3.org/1999/xlink" viewBox="0 0 256 351" shape-rendering="geometricPrecision" text-rendering="geometricPrecision"><defs><linearGradient id="eKmoxgwk1V22-fill" x1="0" y1="1" x2="1" y2="0" spreadMethod="pad" gradientUnits="objectBoundingBox" gradientTransform="translate(0 0)"><stop id="eKmoxgwk1V22-fill-0" offset="0%" stop-color="#c084fc"/><stop id="eKmoxgwk1V22-fill-1" offset="100%" stop-color="#a5b4fc"/></linearGradient><linearGradient id="eKmoxgwk1V23-fill" x1="0" y1="1" x2="1" y2="0" spreadMethod="pad" gradientUnits="objectBoundingBox" gradientTransform="translate(0 0)"><stop id="eKmoxgwk1V23-fill-0" offset="0%" stop-color="#2dd4bf"/><stop id="eKmoxgwk1V23-fill-1" offset="100%" stop-color="#a5b4fc"/></linearGradient></defs><path d="M139.121,347.551l116.275-64.847L222.192,78.209c-1.039-6.398-8.888-8.927-13.468-4.34L-0.000004,282.744L115.608,347.546c7.30642,4.079268,16.204846,4.081161,23.513.005" transform="translate(0-.662338)" fill="url(#eKmoxgwk1V22-fill)"/><path d="M139.121,347.551l116.275-64.847L222.192,78.209c-1.039-6.398-8.888-8.927-13.468-4.34L-0.000004,282.664L115.608,347.546c7.30642,4.079268,16.204846,4.081161,23.513.005" transform="matrix(-1 0 0 1 255.395996-.622338)" fill="url(#eKmoxgwk1V23-fill)"/></svg>
