<!--?xml version="1.0" standalone="no"?-->
              <svg id="sw-js-blob-svg" viewBox="0 0 100 100" xmlns="http://www.w3.org/2000/svg" version="1.1">
                    <defs> 
                        <linearGradient id="sw-gradient" x1="0" x2="1" y1="1" y2="0">
                            <stop id="stop1" stop-color="rgba(67, 56, 202, 1)" offset="0%"></stop>
                            <stop id="stop2" stop-color="rgba(165, 180, 252, 1)" offset="100%"></stop>
                        </linearGradient>
                    </defs>
                <path fill="url(#sw-gradient)" d="M16.2,-28.7C21.2,-25.1,25.8,-21.3,29.9,-16.5C33.9,-11.7,37.3,-5.9,35.4,-1.1C33.6,3.7,26.4,7.4,22.5,12.4C18.6,17.3,17.8,23.4,14.6,26.3C11.4,29.2,5.7,28.9,-0.6,29.9C-6.8,30.9,-13.7,33.2,-17.6,30.7C-21.5,28.2,-22.5,20.9,-24.8,15C-27.1,9,-30.7,4.5,-32.2,-0.9C-33.7,-6.3,-33.1,-12.5,-30.6,-18.1C-28.2,-23.8,-23.8,-28.7,-18.4,-32.2C-13,-35.6,-6.5,-37.4,-0.5,-36.6C5.5,-35.8,11.1,-32.3,16.2,-28.7Z" width="100%" height="100%" transform="translate(50 50)" stroke-width="0" style="transition: all 0.3s ease 0s;" stroke="url(#sw-gradient)"></path>
              </svg>